<svg width="1366" height="656" viewBox="0 0 1366 656" fill="none" xmlns="http://www.w3.org/2000/svg">
<path d="M1488.42 315.342C1463.89 204.896 1216.08 124.01 1029.82 116.767C815.169 108.435 734.111 199.931 570.812 163.386C421.792 130.067 413.164 36.7887 303.601 17.0705C202.91 -1.04797 43.4494 47.7105 -219.647 313.466" stroke="white" stroke-opacity="0.04" stroke-miterlimit="10"/>
<path d="M-207.316 327.551C52.5936 65.6963 212.151 14.7918 314.274 30.4984C389.962 42.2034 419.059 88.6559 478.229 126.66C507.761 146.18 544.099 161.176 583.982 170.301C714.619 200.254 792.599 151.027 932.281 134.848C967.885 130.658 1004.47 129.13 1041.28 130.296C1228.3 135.84 1473.36 207.385 1501.71 314.03" stroke="white" stroke-opacity="0.04" stroke-miterlimit="10"/>
<path d="M-194.94 341.588C61.7719 83.6232 221.333 30.5688 324.675 43.8611C400.64 53.636 431.474 98.0187 490.768 134.237C521.009 153.137 557.294 167.798 596.856 177.101C725.609 207.362 803.55 163.377 943.716 148.277C979.337 144.393 1015.78 142.851 1052.47 143.675C1240.29 147.861 1482.56 209.656 1514.76 312.499" stroke="white" stroke-opacity="0.04" stroke-miterlimit="10"/>
<path d="M-182.595 355.579C70.8587 101.552 230.514 46.3702 335.199 57.1975C411.501 65.0832 443.949 107.353 503.459 141.809C534.344 160.076 570.548 174.408 609.762 183.891C736.75 214.467 814.379 175.692 955.181 161.697C990.835 158.07 1027.18 156.496 1063.78 156.994C1252.36 159.612 1491.86 211.866 1527.89 310.909" stroke="white" stroke-opacity="0.04" stroke-miterlimit="10"/>
<path d="M-170.25 369.662C80.0062 119.454 239.635 62.1749 345.752 70.542C422.301 76.5534 456.515 116.72 516.212 149.356C547.763 167.001 583.951 181.022 622.88 190.685C748.106 221.576 825.512 188.033 967.013 175.126C1002.63 171.807 1038.8 170.222 1075.22 170.386C1264.59 171.438 1501.31 214.173 1541.2 309.421" stroke="white" stroke-opacity="0.04" stroke-miterlimit="10"/>
<path d="M-158.026 383.696C89.124 137.338 248.851 76.1335 356.307 83.8473C433.009 89.3009 469.083 125.936 528.904 156.903C561.106 173.897 597.277 187.606 635.908 197.459C759.371 228.669 836.495 200.355 978.48 188.545C1014.08 185.483 1050.13 183.87 1086.41 183.717C1276.58 183.128 1510.52 216.4 1554.25 307.875" stroke="white" stroke-opacity="0.04" stroke-miterlimit="10"/>
<path d="M-145.529 397.735C98.2719 155.228 257.879 93.8599 366.832 97.0414C443.782 99.5266 481.712 135.253 541.627 164.455C574.444 180.791 610.602 194.197 648.937 204.24C770.637 235.769 847.57 212.668 990.07 201.958C1025.66 199.177 1061.6 197.548 1097.73 197.079C1288.69 194.924 1519.85 218.602 1567.42 306.343" stroke="white" stroke-opacity="0.04" stroke-miterlimit="10"/>
<path d="M-133.184 411.768C107.329 173.097 266.97 109.592 377.387 110.446C454.523 110.978 494.402 144.404 554.351 171.97C587.756 187.633 623.917 200.729 661.966 210.944C781.873 242.81 858.615 224.963 1001.66 215.296C1034.94 213.071 1070.48 211.101 1109.05 210.348C1300.83 206.573 1529.18 220.859 1580.58 304.77" stroke="white" stroke-opacity="0.04" stroke-miterlimit="10"/>
<path d="M-120.839 425.787C116.538 190.963 276.062 125.497 387.911 123.663C465.264 122.413 507.123 153.541 567.135 179.437C601.13 194.42 637.315 207.233 675.087 217.662C793.231 249.85 869.721 237.197 1013.34 228.67C1046.78 226.679 1082.22 224.742 1120.49 223.655C1312.82 218.264 1538.52 223.07 1593.75 303.176" stroke="white" stroke-opacity="0.04" stroke-miterlimit="10"/>
<path d="M-108.462 439.785C125.688 208.802 285.155 141.358 398.469 136.969C476.007 133.954 519.998 162.716 579.77 186.945C614.31 201.238 650.514 213.773 687.998 224.418C804.409 256.93 880.678 249.514 1024.85 241.994C1058.28 240.228 1093.75 238.293 1131.72 236.89C1325.06 229.81 1547.85 225.158 1606.93 301.497" stroke="white" stroke-opacity="0.04" stroke-miterlimit="10"/>
<path d="M-96.1175 453.793C134.806 226.622 294.247 157.233 408.934 150.19C486.658 145.428 532.659 171.78 592.435 194.431C627.512 208.006 663.761 220.259 700.968 231.118C815.587 263.953 891.635 261.757 1036.38 255.434C1069.97 253.94 1105.35 251.982 1142.98 250.28C1337.12 241.5 1557.1 227.429 1620.07 299.987" stroke="white" stroke-opacity="0.04" stroke-miterlimit="10"/>
<path d="M-83.7728 467.792C143.955 244.446 303.401 173.092 419.552 163.397C497.492 156.906 545.534 180.813 605.192 201.88C639.485 213.981 674.6 226.216 714.061 237.803C826.917 270.946 902.745 274.009 1048.04 268.771C1081.71 267.526 1117.03 265.547 1154.42 263.55C1349.36 253.07 1566.56 229.575 1633.34 298.367" stroke="white" stroke-opacity="0.04" stroke-miterlimit="10"/>
<path d="M-71.4266 481.783C153.105 262.309 312.343 188.957 430.08 176.594C508.237 168.355 558.412 189.782 617.92 209.302C653.036 220.823 688.242 232.765 727.096 244.461C838.19 277.99 913.766 286.222 1059.63 282.088C1093.4 281.113 1128.69 279.112 1165.69 276.795C1361.39 264.574 1575.84 231.687 1646.46 296.717" stroke="white" stroke-opacity="0.04" stroke-miterlimit="10"/>
<path d="M-59.1425 495.765C162.224 280.025 321.619 204.838 440.609 189.77C518.982 179.838 571.289 198.71 630.649 216.719C666.617 227.625 701.885 239.291 740.01 251.11C849.372 284.915 924.666 298.451 1071.23 295.429C1105.12 294.686 1140.32 292.663 1177.01 290.066C1373.51 276.067 1585.18 233.777 1659.64 295.046" stroke="white" stroke-opacity="0.04" stroke-miterlimit="10"/>
<path d="M-46.705 509.716C171.375 297.768 330.685 220.709 451.17 202.888C529.79 191.244 584.199 207.538 643.35 224.054C680.171 234.325 715.561 245.758 753.169 257.692C860.708 291.829 935.842 310.605 1082.83 308.683C1118.28 307.989 1153.5 306.157 1188.37 303.196C1385.6 287.507 1594.62 235.866 1672.82 293.314" stroke="white" stroke-opacity="0.04" stroke-miterlimit="10"/>
<path d="M-34.3604 523.676C180.525 315.513 339.992 236.511 461.608 215.974C540.476 202.634 597.018 216.313 656.111 231.381C693.785 240.998 729.237 252.195 766.207 264.259C872.015 298.734 946.898 322.773 1094.38 321.936C1129.79 321.528 1164.95 319.69 1199.64 316.436C1397.7 298.815 1603.88 237.877 1686.04 291.495" stroke="white" stroke-opacity="0.04" stroke-miterlimit="10"/>
<path d="M-22.0159 537.621C189.645 333.213 349.3 252.412 472.26 229.031C551.315 214.027 610.021 225.016 668.813 238.642C707.34 247.587 742.853 258.606 779.216 270.783C883.232 305.598 957.925 334.891 1106.04 335.168C1141.42 335.021 1176.52 333.159 1211.04 329.598C1409.77 310.223 1613.24 239.865 1699.23 289.78" stroke="white" stroke-opacity="0.04" stroke-miterlimit="10"/>
<path d="M-9.63974 551.226C198.809 350.282 358.388 267.362 482.821 241.175C562.219 224.448 622.97 232.742 681.557 245.016C721.06 253.277 756.546 264.14 792.303 276.477C894.562 311.678 969.008 346.365 1117.71 347.772C1153.06 347.879 1188.11 345.991 1222.44 342.132C1421.92 320.886 1622.68 241.009 1712.52 287.264" stroke="white" stroke-opacity="0.04" stroke-miterlimit="10"/>
<path d="M2.70496 564.823C207.82 367.177 367.658 282.35 493.413 253.352C573.094 234.927 635.891 240.474 694.332 251.45C734.6 259.07 770.302 269.749 805.393 282.227C905.896 317.893 980.126 357.93 1129.39 360.415C1164.69 360.776 1199.7 358.863 1233.85 354.703C1434.08 331.557 1632.29 242.209 1725.82 284.722" stroke="white" stroke-opacity="0.04" stroke-miterlimit="10"/>
<path d="M15.0495 578.426C217.105 384.208 376.96 297.357 503.977 265.398C584.001 245.25 648.815 247.995 707.111 257.627C748.234 264.436 783.97 275.093 818.486 287.754C917.202 323.845 991.216 369.279 1141.07 372.944C1176.34 373.572 1211.3 371.632 1245.27 367.161C1446.21 342.046 1641.6 243.085 1739.12 281.945" stroke="white" stroke-opacity="0.04" stroke-miterlimit="10"/>
<path d="M27.4256 592.026C226.269 401.262 386.262 312.505 514.45 277.528C594.788 255.687 661.589 255.575 719.74 263.911C761.719 269.923 797.549 280.521 831.429 293.285C928.42 329.822 1002.22 380.696 1152.62 385.489C1187.87 386.365 1222.8 384.397 1256.59 379.634C1458.1 352.38 1650.94 244.063 1752.37 279.166" stroke="white" stroke-opacity="0.04" stroke-miterlimit="10"/>
<path d="M39.7384 605.654C357.232 301.689 581.363 251.796 732.641 270.209C897.782 290.307 960.646 390.077 1164.43 398.122C1403.48 407.537 1642.68 239.69 1765.74 276.359" stroke="white" stroke-opacity="0.04" stroke-miterlimit="10"/>
</svg>
